<mxfile host="app.diagrams.net" modified="2023-05-24T21:19:44.752Z" agent="Mozilla/5.0 (X11; Linux x86_64) AppleWebKit/537.36 (KHTML, like Gecko) Chrome/113.0.0.0 Safari/537.36" etag="WWkki555AJOHw8fZ-Ap6" version="21.3.3" type="github">
  <diagram name="Page-1" id="2YBvvXClWsGukQMizWep">
    <mxGraphModel dx="1970" dy="459" grid="1" gridSize="10" guides="1" tooltips="1" connect="1" arrows="1" fold="1" page="1" pageScale="1" pageWidth="850" pageHeight="1100" math="0" shadow="0">
      <root>
        <mxCell id="0" />
        <mxCell id="1" parent="0" />
        <mxCell id="SqmqARdED-hJMlYGhAiN-31" value="Aluno" style="shape=umlActor;verticalLabelPosition=bottom;verticalAlign=top;html=1;outlineConnect=0;" parent="1" vertex="1">
          <mxGeometry x="-430" y="200" width="30" height="60" as="geometry" />
        </mxCell>
        <mxCell id="SqmqARdED-hJMlYGhAiN-32" value="alunVan:&amp;nbsp;&amp;nbsp;&lt;span style=&quot;background-color: initial;&quot;&gt;AlunoVantagemController&lt;/span&gt;" style="shape=umlLifeline;perimeter=lifelinePerimeter;whiteSpace=wrap;html=1;container=0;dropTarget=0;collapsible=0;recursiveResize=0;outlineConnect=0;portConstraint=eastwest;newEdgeStyle={&quot;edgeStyle&quot;:&quot;elbowEdgeStyle&quot;,&quot;elbow&quot;:&quot;vertical&quot;,&quot;curved&quot;:0,&quot;rounded&quot;:0};" parent="1" vertex="1">
          <mxGeometry x="60" y="100" width="280" height="420" as="geometry" />
        </mxCell>
        <mxCell id="SqmqARdED-hJMlYGhAiN-33" value="" style="html=1;points=[];perimeter=orthogonalPerimeter;outlineConnect=0;targetShapes=umlLifeline;portConstraint=eastwest;newEdgeStyle={&quot;edgeStyle&quot;:&quot;elbowEdgeStyle&quot;,&quot;elbow&quot;:&quot;vertical&quot;,&quot;curved&quot;:0,&quot;rounded&quot;:0};" parent="SqmqARdED-hJMlYGhAiN-32" vertex="1">
          <mxGeometry x="135" y="60" width="10" height="330" as="geometry" />
        </mxCell>
        <mxCell id="SqmqARdED-hJMlYGhAiN-34" value="saveAlunoVantagem(@RequestBody @Valid AlunoVantagemDto alunoVantagemDto):&amp;nbsp;ResponseEntity&amp;lt;Object&amp;gt;" style="html=1;verticalAlign=bottom;startArrow=oval;endArrow=block;startSize=8;edgeStyle=elbowEdgeStyle;elbow=vertical;curved=0;rounded=0;exitX=1;exitY=0.3333333333333333;exitDx=0;exitDy=0;exitPerimeter=0;" parent="1" source="SqmqARdED-hJMlYGhAiN-31" target="SqmqARdED-hJMlYGhAiN-33" edge="1">
          <mxGeometry x="-0.0175" y="10" relative="1" as="geometry">
            <mxPoint x="10" y="390" as="sourcePoint" />
            <mxPoint x="210" y="220" as="targetPoint" />
            <Array as="points">
              <mxPoint x="50" y="220" />
              <mxPoint y="240" />
            </Array>
            <mxPoint as="offset" />
          </mxGeometry>
        </mxCell>
        <mxCell id="SqmqARdED-hJMlYGhAiN-35" value="alunVan: AlunoVantagemService&amp;nbsp;" style="shape=umlLifeline;perimeter=lifelinePerimeter;whiteSpace=wrap;html=1;container=0;dropTarget=0;collapsible=0;recursiveResize=0;outlineConnect=0;portConstraint=eastwest;newEdgeStyle={&quot;edgeStyle&quot;:&quot;elbowEdgeStyle&quot;,&quot;elbow&quot;:&quot;vertical&quot;,&quot;curved&quot;:0,&quot;rounded&quot;:0};" parent="1" vertex="1">
          <mxGeometry x="560" y="95" width="220.5" height="420" as="geometry" />
        </mxCell>
        <mxCell id="SqmqARdED-hJMlYGhAiN-36" value="" style="html=1;points=[];perimeter=orthogonalPerimeter;outlineConnect=0;targetShapes=umlLifeline;portConstraint=eastwest;newEdgeStyle={&quot;edgeStyle&quot;:&quot;elbowEdgeStyle&quot;,&quot;elbow&quot;:&quot;vertical&quot;,&quot;curved&quot;:0,&quot;rounded&quot;:0};" parent="SqmqARdED-hJMlYGhAiN-35" vertex="1">
          <mxGeometry x="105.25" y="60" width="10" height="330" as="geometry" />
        </mxCell>
        <mxCell id="SqmqARdED-hJMlYGhAiN-37" value="return" style="html=1;verticalAlign=bottom;endArrow=open;dashed=1;endSize=8;edgeStyle=elbowEdgeStyle;elbow=vertical;curved=0;rounded=0;" parent="1" source="SqmqARdED-hJMlYGhAiN-41" edge="1">
          <mxGeometry relative="1" as="geometry">
            <mxPoint x="1290" y="400" as="targetPoint" />
            <Array as="points">
              <mxPoint x="1320" y="410" />
              <mxPoint x="1110.5" y="430" />
              <mxPoint x="915.5" y="550" />
              <mxPoint x="1170.5" y="520" />
              <mxPoint x="1050.5" y="520" />
            </Array>
            <mxPoint x="1180" y="420" as="sourcePoint" />
          </mxGeometry>
        </mxCell>
        <mxCell id="SqmqARdED-hJMlYGhAiN-38" style="edgeStyle=elbowEdgeStyle;rounded=0;orthogonalLoop=1;jettySize=auto;html=1;elbow=vertical;curved=0;" parent="1" source="SqmqARdED-hJMlYGhAiN-33" target="SqmqARdED-hJMlYGhAiN-35" edge="1">
          <mxGeometry relative="1" as="geometry" />
        </mxCell>
        <mxCell id="SqmqARdED-hJMlYGhAiN-39" value="save(AlunoVantagemModel alunoVantagemModel):&amp;nbsp;AlunoVantagemModel&amp;nbsp;" style="text;html=1;align=center;verticalAlign=middle;resizable=0;points=[];autosize=1;strokeColor=none;fillColor=none;" parent="1" vertex="1">
          <mxGeometry x="235" y="295" width="420" height="30" as="geometry" />
        </mxCell>
        <mxCell id="SqmqARdED-hJMlYGhAiN-40" value="vanR: VantagemRepository&amp;nbsp;" style="shape=umlLifeline;perimeter=lifelinePerimeter;whiteSpace=wrap;html=1;container=0;dropTarget=0;collapsible=0;recursiveResize=0;outlineConnect=0;portConstraint=eastwest;newEdgeStyle={&quot;edgeStyle&quot;:&quot;elbowEdgeStyle&quot;,&quot;elbow&quot;:&quot;vertical&quot;,&quot;curved&quot;:0,&quot;rounded&quot;:0};" parent="1" vertex="1">
          <mxGeometry x="1350" y="80" width="140" height="420" as="geometry" />
        </mxCell>
        <mxCell id="SqmqARdED-hJMlYGhAiN-41" value="" style="html=1;points=[];perimeter=orthogonalPerimeter;outlineConnect=0;targetShapes=umlLifeline;portConstraint=eastwest;newEdgeStyle={&quot;edgeStyle&quot;:&quot;elbowEdgeStyle&quot;,&quot;elbow&quot;:&quot;vertical&quot;,&quot;curved&quot;:0,&quot;rounded&quot;:0};" parent="SqmqARdED-hJMlYGhAiN-40" vertex="1">
          <mxGeometry x="65" y="60" width="10" height="330" as="geometry" />
        </mxCell>
        <mxCell id="SqmqARdED-hJMlYGhAiN-42" style="edgeStyle=elbowEdgeStyle;rounded=0;orthogonalLoop=1;jettySize=auto;html=1;elbow=vertical;curved=0;" parent="1" target="SqmqARdED-hJMlYGhAiN-40" edge="1">
          <mxGeometry relative="1" as="geometry">
            <Array as="points">
              <mxPoint x="870" y="370" />
            </Array>
            <mxPoint x="1290" y="360" as="sourcePoint" />
          </mxGeometry>
        </mxCell>
        <mxCell id="SqmqARdED-hJMlYGhAiN-43" value="save(VantagemModel vantagemModel):&amp;nbsp;VantagemModel&amp;nbsp;" style="text;html=1;align=center;verticalAlign=middle;resizable=0;points=[];autosize=1;strokeColor=none;fillColor=none;" parent="1" vertex="1">
          <mxGeometry x="1250" y="200" width="330" height="30" as="geometry" />
        </mxCell>
        <mxCell id="tae8RekhbDJZjGjQk9bk-1" value="alunEmail: EmailService&amp;nbsp;" style="shape=umlLifeline;perimeter=lifelinePerimeter;whiteSpace=wrap;html=1;container=0;dropTarget=0;collapsible=0;recursiveResize=0;outlineConnect=0;portConstraint=eastwest;newEdgeStyle={&quot;edgeStyle&quot;:&quot;elbowEdgeStyle&quot;,&quot;elbow&quot;:&quot;vertical&quot;,&quot;curved&quot;:0,&quot;rounded&quot;:0};" vertex="1" parent="1">
          <mxGeometry x="920" y="95" width="220.5" height="420" as="geometry" />
        </mxCell>
        <mxCell id="tae8RekhbDJZjGjQk9bk-2" value="" style="html=1;points=[];perimeter=orthogonalPerimeter;outlineConnect=0;targetShapes=umlLifeline;portConstraint=eastwest;newEdgeStyle={&quot;edgeStyle&quot;:&quot;elbowEdgeStyle&quot;,&quot;elbow&quot;:&quot;vertical&quot;,&quot;curved&quot;:0,&quot;rounded&quot;:0};" vertex="1" parent="tae8RekhbDJZjGjQk9bk-1">
          <mxGeometry x="105.25" y="60" width="10" height="330" as="geometry" />
        </mxCell>
        <mxCell id="tae8RekhbDJZjGjQk9bk-3" style="edgeStyle=elbowEdgeStyle;rounded=0;orthogonalLoop=1;jettySize=auto;html=1;elbow=vertical;curved=0;" edge="1" parent="1" source="SqmqARdED-hJMlYGhAiN-36" target="tae8RekhbDJZjGjQk9bk-2">
          <mxGeometry relative="1" as="geometry">
            <mxPoint x="215" y="335" as="sourcePoint" />
            <mxPoint x="680" y="335" as="targetPoint" />
            <Array as="points">
              <mxPoint x="860" y="420" />
            </Array>
          </mxGeometry>
        </mxCell>
        <mxCell id="tae8RekhbDJZjGjQk9bk-6" value="sendEmail(String to, String subject, String body):&amp;nbsp;void" style="text;html=1;strokeColor=none;fillColor=none;align=center;verticalAlign=middle;whiteSpace=wrap;rounded=0;" vertex="1" parent="1">
          <mxGeometry x="690" y="390" width="320" height="30" as="geometry" />
        </mxCell>
        <mxCell id="tae8RekhbDJZjGjQk9bk-4" value="Return" style="endArrow=open;endSize=12;dashed=1;html=1;rounded=0;" edge="1" parent="1" source="SqmqARdED-hJMlYGhAiN-36" target="SqmqARdED-hJMlYGhAiN-32">
          <mxGeometry x="0.0102" y="-20" width="160" relative="1" as="geometry">
            <mxPoint x="910" y="350" as="sourcePoint" />
            <mxPoint x="1070" y="350" as="targetPoint" />
            <Array as="points">
              <mxPoint x="430" y="360" />
            </Array>
            <mxPoint as="offset" />
          </mxGeometry>
        </mxCell>
      </root>
    </mxGraphModel>
  </diagram>
</mxfile>
